<svg id="av_timer_black_24dp" xmlns="http://www.w3.org/2000/svg" width="32.501" height="32.501" viewBox="0 0 32.501 32.501">
  <path id="Path_4" data-name="Path 4" d="M0,0H32.5V32.5H0Z" fill="none"/>
  <path id="Path_5" data-name="Path 5" d="M13.834,21.959A1.354,1.354,0,1,0,15.188,20.6,1.358,1.358,0,0,0,13.834,21.959ZM13.834,3V8.417h2.708v-2.6A9.474,9.474,0,1,1,5.708,15.188,9.367,9.367,0,0,1,7.848,9.2l7.34,7.34L17.1,14.633,7.889,5.424v.027A12.164,12.164,0,1,0,15.188,3Zm9.479,12.188a1.354,1.354,0,1,0-1.354,1.354A1.358,1.358,0,0,0,23.313,15.188Zm-16.25,0a1.354,1.354,0,1,0,1.354-1.354A1.358,1.358,0,0,0,7.063,15.188Z" transform="translate(1.063 1.063)" fill="#9ca3af"/>
</svg>
