<svg id="notifications_none_black_24dp" xmlns="http://www.w3.org/2000/svg" width="60" height="60" viewBox="0 0 60 60">
  <path id="Path_29" data-name="Path 29" d="M0,0H60V60H0Z" fill="none"/>
  <path id="Path_30" data-name="Path 30" d="M24,51.25a5.015,5.015,0,0,0,5-5H19A5.015,5.015,0,0,0,24,51.25Zm15-15V23.75c0-7.675-4.075-14.1-11.25-15.8V6.25a3.75,3.75,0,0,0-7.5,0v1.7C13.1,9.65,9,16.05,9,23.75v12.5l-5,5v2.5H44v-2.5Zm-5,2.5H14v-15c0-6.2,3.775-11.25,10-11.25s10,5.05,10,11.25Z" transform="translate(6 3.75)" fill="#3959fb"/>
</svg>
