<svg id="dvr_black_24dp" xmlns="http://www.w3.org/2000/svg" width="32.501" height="32.501" viewBox="0 0 32.501 32.501">
  <path id="Path_6" data-name="Path 6" d="M0,0H32.5V32.5H0Z" fill="none"/>
  <path id="Path_7" data-name="Path 7" d="M28.084,3H3.708A2.716,2.716,0,0,0,1,5.708v16.25a2.716,2.716,0,0,0,2.708,2.708h6.771v2.708H21.313V24.667h6.771a2.716,2.716,0,0,0,2.708-2.708V5.708A2.716,2.716,0,0,0,28.084,3Zm0,18.959H3.708V5.708H28.084ZM25.376,9.771h-14.9v2.708h14.9Zm0,5.417h-14.9V17.9h14.9ZM9.125,9.771H6.417v2.708H9.125Zm0,5.417H6.417V17.9H9.125Z" transform="translate(0.354 1.063)" fill="#9ca3af"/>
</svg>
