<svg id="event_note_black_24dp" xmlns="http://www.w3.org/2000/svg" width="32.501" height="32.501" viewBox="0 0 32.501 32.501">
  <path id="Path_8" data-name="Path 8" d="M0,0H32.5V32.5H0Z" fill="none"/>
  <path id="Path_9" data-name="Path 9" d="M24.667,3.708H23.313V1H20.6V3.708H9.771V1H7.063V3.708H5.708A2.716,2.716,0,0,0,3,6.417V25.376a2.716,2.716,0,0,0,2.708,2.708H24.667a2.716,2.716,0,0,0,2.708-2.708V6.417A2.716,2.716,0,0,0,24.667,3.708Zm0,21.667H5.708V11.834H24.667ZM5.708,9.125V6.417H24.667V9.125Zm2.708,5.417H21.959V17.25H8.417Zm0,5.417H17.9v2.708H8.417Z" transform="translate(1.063 0.354)" fill="#9ca3af"/>
</svg>
