<svg id="group_black_24dp" xmlns="http://www.w3.org/2000/svg" width="32.501" height="32.501" viewBox="0 0 32.501 32.501">
  <path id="Path_10" data-name="Path 10" d="M0,0H32.5V32.5H0Z" fill="none"/>
  <path id="Path_11" data-name="Path 11" d="M11.479,16.849C8.311,16.849,2,18.434,2,21.589v2.37H20.959v-2.37C20.959,18.434,14.648,16.849,11.479,16.849Zm-6.311,4.4a13.057,13.057,0,0,1,6.311-1.693A13.057,13.057,0,0,1,17.79,21.25Zm6.311-6.771A4.74,4.74,0,1,0,6.74,9.74,4.745,4.745,0,0,0,11.479,14.479Zm0-6.771A2.031,2.031,0,1,1,9.448,9.74,2.029,2.029,0,0,1,11.479,7.708Zm9.534,9.222a5.678,5.678,0,0,1,2.654,4.658v2.37h5.417v-2.37C29.084,18.854,24.344,17.3,21.013,16.931ZM19.6,14.479A4.74,4.74,0,1,0,19.6,5a4.666,4.666,0,0,0-2.031.474,7.4,7.4,0,0,1,0,8.531A4.666,4.666,0,0,0,19.6,14.479Z" transform="translate(0.708 1.771)" fill="#9ca3af"/>
</svg>
