<svg xmlns="http://www.w3.org/2000/svg" width="15.173" height="16.858" viewBox="0 0 15.173 16.858">
  <g id="income" transform="translate(-1.414 -0.571)">
    <path id="Path_35" data-name="Path 35" d="M13.828,3.253V2.1H11.433A2.509,2.509,0,0,0,9,.571,2.509,2.509,0,0,0,6.567,2.1H4.172V3.253H1.414V17.429H16.586V3.253Zm-8.276,0h2.3V2.678A1.068,1.068,0,0,1,9,1.72a1.068,1.068,0,0,1,1.149.958v.575h2.3V4.4h-6.9ZM15.207,16.28H2.793V4.4H4.172V5.552h9.655V4.4h1.379Z" fill="#718093"/>
    <path id="Path_36" data-name="Path 36" d="M10.379,10.341H9.69V9.192h.69a4.065,4.065,0,0,1,1.149.163l.46-1.084a5.691,5.691,0,0,0-1.609-.229H9.69V7.084H8.31v.958h-.69A1.923,1.923,0,0,0,5.552,9.766a1.923,1.923,0,0,0,2.069,1.724h.69V12.64h-.69a4.066,4.066,0,0,1-1.15-.163l-.46,1.084a5.689,5.689,0,0,0,1.609.229h.69v.958H9.69v-.958h.69a1.923,1.923,0,0,0,2.069-1.724A1.923,1.923,0,0,0,10.379,10.341Zm-2.069,0h-.69a.641.641,0,0,1-.69-.575.641.641,0,0,1,.69-.575h.69Zm2.069,2.3H9.69V11.491h.69a.641.641,0,0,1,.69.575A.641.641,0,0,1,10.379,12.64Z" fill="#718093"/>
  </g>
</svg>
