<svg xmlns="http://www.w3.org/2000/svg" width="863.695" height="163.5" viewBox="0 0 863.695 163.5">
  <g id="logo-white" transform="translate(0 -0.542)">
    <path id="Path_1" data-name="Path 1" d="M161.283,31.9l-21.848,75.916H125.883L105,46,83.984,107.811H70.294L48.723,31.9H61.445L77.623,95.781,98.642,31.9h13.137l21.157,63.747L149.253,31.9Zm46.186-.968a40.274,40.274,0,0,1,19.567,4.7,33.644,33.644,0,0,1,13.552,13.551q4.909,8.85,4.909,20.742T240.587,90.6a33.759,33.759,0,0,1-13.552,13.482,43.066,43.066,0,0,1-39.133,0A34.21,34.21,0,0,1,174.281,90.6Q169.3,81.815,169.3,69.923t4.978-20.742A34.089,34.089,0,0,1,187.9,35.63,40.273,40.273,0,0,1,207.469,30.928Zm0,11.063a26.3,26.3,0,0,0-12.514,3.042,22.872,22.872,0,0,0-9.265,9.334q-3.526,6.291-3.526,15.556,0,9.127,3.526,15.418a22.875,22.875,0,0,0,9.265,9.334,27.261,27.261,0,0,0,25.029,0,22.878,22.878,0,0,0,9.265-9.334q3.526-6.292,3.526-15.418,0-9.265-3.526-15.556a22.875,22.875,0,0,0-9.265-9.334A26.3,26.3,0,0,0,207.47,41.991Zm67.065,5.255a27.921,27.921,0,0,1,10.924-12.238A32.466,32.466,0,0,1,302.6,30.652V44.341h-3.87q-10.647,0-17.423,5.462t-6.776,18.046v39.963H261.951V31.9h12.583Zm82.136,60.567-29.04-34.155v34.155H315.05V5.484h12.58v59.46L356.256,31.9h15.349L337.59,69.646l34.844,38.166Zm73.015-78.128a31.263,31.263,0,0,1,17.082,4.771,32.7,32.7,0,0,1,11.889,13.69q4.353,8.919,4.358,21.088a47.711,47.711,0,0,1-4.358,21.019,32.62,32.62,0,0,1-11.889,13.759,31.263,31.263,0,0,1-17.082,4.771,27.947,27.947,0,0,1-15.211-4.01,23.285,23.285,0,0,1-9.264-10.924v50.749H381.565V30.651h23.646V44.618a23.285,23.285,0,0,1,9.264-10.924A27.947,27.947,0,0,1,429.685,29.684ZM422.08,50.426a16.1,16.1,0,0,0-12.24,5.047q-4.768,5.047-4.768,13.758,0,8.574,4.768,13.69a15.993,15.993,0,0,0,12.24,5.117q7.6,0,12.235-4.978t4.634-13.828q0-8.85-4.634-13.828T422.08,50.426ZM552.064,30.652v77.16H528.28V93.846a25.627,25.627,0,0,1-9.886,10.786,28.741,28.741,0,0,1-15.28,4.011q-13.274,0-21.089-8.85t-7.813-24.337v-44.8H497.72v41.9q0,7.882,4.082,12.238t10.991,4.356q7.188,0,11.337-4.563t4.151-13V30.652ZM592.031,5.484V107.812H568.386V5.484Zm44.379,24.2q14.658,0,23.438,7.329a31.852,31.852,0,0,1,11,19.359H648.72a12.254,12.254,0,0,0-4.358-7.4,13.219,13.219,0,0,0-8.5-2.7q-4.005,0-6.085,1.728a6.035,6.035,0,0,0-2.073,4.909q0,3.595,3.805,5.393A60.539,60.539,0,0,0,643.464,61.9a118.717,118.717,0,0,1,14.52,4.218A23.929,23.929,0,0,1,667.8,73.1q4.153,4.839,4.151,13a19.925,19.925,0,0,1-3.6,11.754,23.653,23.653,0,0,1-10.369,8.02,40.523,40.523,0,0,1-16.04,2.9q-15.628,0-25.028-6.914t-11.48-19.774h22.817a10.274,10.274,0,0,0,4.22,7.605,15.87,15.87,0,0,0,9.471,2.628q4.012,0,6.085-1.867a6.29,6.29,0,0,0,2.073-4.909,5.9,5.9,0,0,0-3.8-5.738,70,70,0,0,0-12.378-3.665,98.928,98.928,0,0,1-14.105-3.872,23.3,23.3,0,0,1-9.54-6.707q-4.013-4.632-4.013-12.652a20.658,20.658,0,0,1,7.882-16.8Q622.031,29.683,636.411,29.684Z" transform="translate(191.744 19.448)" fill="#171717" fill-rule="evenodd"/>
    <path id="Path_2" data-name="Path 2" d="M100,42.069a6.173,6.173,0,0,1,5.473,3.318l28.511,54.646,16.438-24.657a6.173,6.173,0,0,1,5.136-2.749h22.224c0-4.63,0,3.073,0,6.482s0,9.877,0,5.864h-18.92L138.476,115.56a6.174,6.174,0,0,1-10.61-.569L100,61.588l-27.862,53.4a6.174,6.174,0,0,1-10.541.67L39.377,83.714a6.173,6.173,0,0,1,10.135-7.05l16.4,23.575L94.531,45.387A6.173,6.173,0,0,1,100,42.069ZM0,66.265A24.677,24.677,0,0,1,17.168,42.758L145.6,1.731a24.677,24.677,0,0,1,32.186,23.507V136.772a24.677,24.677,0,0,1-31.282,23.776L18.072,124.872A24.677,24.677,0,0,1,0,101.1Z" fill="#a59efe" fill-rule="evenodd"/>
  </g>
</svg>
