<svg id="perm_media_black_24dp" xmlns="http://www.w3.org/2000/svg" width="32.501" height="32.501" viewBox="0 0 32.501 32.501">
  <path id="Path_12" data-name="Path 12" d="M0,0H32.5V32.5H0Z" fill="none"/>
  <path id="Path_13" data-name="Path 13" d="M2.708,7.417H0v6.771H.014L0,26.376a2.716,2.716,0,0,0,2.708,2.708H27.084V26.376H2.708ZM9.479,19.6H28.438L23.7,13.511l-3.386,4.076-4.74-6.107Zm20.313-14.9H18.959L16.25,2H8.125A2.7,2.7,0,0,0,5.43,4.708l-.014,16.25a2.716,2.716,0,0,0,2.708,2.708H29.792A2.716,2.716,0,0,0,32.5,20.959V7.417A2.716,2.716,0,0,0,29.792,4.708Zm0,16.25H8.125V4.708h7l1.909,1.909.8.8H29.792Z" transform="translate(0 0.708)" fill="#9ca3af"/>
</svg>
