<svg xmlns="http://www.w3.org/2000/svg" width="91.111" height="91.111" viewBox="0 0 91.111 91.111">
  <path id="Path_3" data-name="Path 3" d="M79.444,11.111H70.333V6.556a4.556,4.556,0,1,0-9.111,0v4.556H33.889V6.556a4.556,4.556,0,1,0-9.111,0v4.556H15.667A13.667,13.667,0,0,0,2,24.778V79.444A13.667,13.667,0,0,0,15.667,93.111H79.444A13.667,13.667,0,0,0,93.111,79.444V24.778A13.667,13.667,0,0,0,79.444,11.111ZM84,79.444A4.556,4.556,0,0,1,79.444,84H15.667a4.556,4.556,0,0,1-4.556-4.556V47.555H84Zm0-41H11.111V24.778a4.556,4.556,0,0,1,4.556-4.556h9.111v4.556a4.556,4.556,0,1,0,9.111,0V20.222H61.222v4.556a4.556,4.556,0,1,0,9.111,0V20.222h9.111A4.556,4.556,0,0,1,84,24.778Z" transform="translate(-2 -2)" fill="#abb4be"/>
</svg>
