<svg id="toll_black_24dp" xmlns="http://www.w3.org/2000/svg" width="32.501" height="32.501" viewBox="0 0 32.501 32.501">
  <path id="Path_16" data-name="Path 16" d="M0,0H32.5V32.5H0Z" fill="none"/>
  <path id="Path_17" data-name="Path 17" d="M19.959,4A10.834,10.834,0,1,0,30.792,14.834,10.831,10.831,0,0,0,19.959,4Zm0,18.959a8.125,8.125,0,1,1,8.125-8.125A8.132,8.132,0,0,1,19.959,22.959ZM3.708,14.834A8.113,8.113,0,0,1,9.125,7.182V4.352a10.823,10.823,0,0,0,0,20.963v-2.83A8.113,8.113,0,0,1,3.708,14.834Z" transform="translate(0.354 1.417)" fill="#9ca3af"/>
</svg>
