<svg id="work_outline_black_24dp" xmlns="http://www.w3.org/2000/svg" width="32.501" height="32.501" viewBox="0 0 32.501 32.501">
  <path id="Path_19" data-name="Path 19" d="M0,0H32.5V32.5H0Z" fill="none"/>
  <path id="Path_20" data-name="Path 20" d="M18.25,7.417V4.708H12.834V7.417ZM4.708,10.125v14.9H26.376v-14.9ZM26.376,7.417a2.7,2.7,0,0,1,2.708,2.708v14.9a2.7,2.7,0,0,1-2.708,2.708H4.708A2.7,2.7,0,0,1,2,25.021l.014-14.9A2.688,2.688,0,0,1,4.708,7.417h5.417V4.708A2.7,2.7,0,0,1,12.834,2H18.25a2.7,2.7,0,0,1,2.708,2.708V7.417Z" transform="translate(0.708 0.708)" fill="#9ca3af"/>
</svg>
