<svg id="settings_black_24dp" xmlns="http://www.w3.org/2000/svg" width="32.501" height="32.501" viewBox="0 0 32.501 32.501">
  <path id="Path_14" data-name="Path 14" d="M0,0H32.5V32.5H0Z" fill="none"/>
  <path id="Path_15" data-name="Path 15" d="M24.977,16.673a9.58,9.58,0,0,0,.081-1.273,7.823,7.823,0,0,0-.095-1.273l2.749-2.14a.664.664,0,0,0,.163-.826l-2.6-4.5a.661.661,0,0,0-.8-.3l-3.237,1.3a9.566,9.566,0,0,0-2.194-1.273l-.488-3.44a.655.655,0,0,0-.65-.555h-5.2a.641.641,0,0,0-.636.555l-.488,3.44A9.778,9.778,0,0,0,9.39,7.668l-3.237-1.3a.647.647,0,0,0-.8.3l-2.587,4.5a.616.616,0,0,0,.163.826l2.749,2.14a7.534,7.534,0,0,0-.027,2.546L2.9,18.813a.664.664,0,0,0-.163.826l2.6,4.5a.661.661,0,0,0,.8.3l3.237-1.3a9.566,9.566,0,0,0,2.194,1.273l.488,3.44a.666.666,0,0,0,.65.555h5.2a.632.632,0,0,0,.636-.555l.488-3.44a9.288,9.288,0,0,0,2.194-1.273l3.237,1.3a.647.647,0,0,0,.8-.3l2.6-4.5a.627.627,0,0,0-.163-.826Zm-9.669,3.6A4.875,4.875,0,1,1,20.183,15.4,4.889,4.889,0,0,1,15.308,20.275Z" transform="translate(0.943 0.85)" fill="#9ca3af"/>
</svg>
